<svg width="37" height="37" viewBox="0 0 37 37" fill="none" xmlns="http://www.w3.org/2000/svg">
<path d="M28.45 8.25C30.6602 8.46717 32.1478 8.95801 33.2583 10.0673C35.25 12.0569 35.25 15.2592 35.25 21.6638C35.25 28.0684 35.25 31.2706 33.2583 33.2603C31.2667 35.25 28.061 35.25 21.65 35.25H14.85C8.43889 35.25 5.23336 35.25 3.24167 33.2603C1.25 31.2706 1.25 28.0684 1.25 21.6638C1.25 15.2592 1.25 12.0569 3.24167 10.0673C4.35208 8.95801 5.83981 8.46717 8.05 8.25" stroke="#39B54A" stroke-width="2.5"/>
<path d="M15.25 8.25H21.25" stroke="#39B54A" stroke-width="2.5" stroke-linecap="round"/>
<path d="M16.25 13.25H20.25" stroke="#39B54A" stroke-width="2.5" stroke-linecap="round"/>
<path d="M11.8482 17.4537L10.6488 16.462C9.4692 15.4867 8.8794 14.9991 8.5647 14.3325C8.25 13.6658 8.25 12.9041 8.25 11.3807V9.51795C8.25 5.6204 8.25 3.67163 9.47038 2.46081C10.6908 1.25 12.655 1.25 16.5833 1.25H19.9167C23.845 1.25 25.8092 1.25 27.0297 2.46081C28.25 3.67163 28.25 5.6204 28.25 9.51795V11.3807C28.25 12.9041 28.25 13.6658 27.9353 14.3325C27.6207 14.9991 27.0308 15.4867 25.8512 16.462L24.6518 17.4537C21.5908 19.9845 20.0602 21.25 18.25 21.25C16.4398 21.25 14.9092 19.9845 11.8482 17.4537Z" stroke="#39B54A" stroke-width="2.5" stroke-linecap="round"/>
<path d="M8.25 15.25L11.8482 17.8861C14.9092 20.1287 16.4398 21.25 18.25 21.25C20.0602 21.25 21.5908 20.1287 24.6518 17.8861L28.25 15.25" stroke="#39B54A" stroke-width="2.5" stroke-linecap="round"/>
</svg>
